<svg width="68" height="40" viewBox="0 0 68 40" fill="none" xmlns="http://www.w3.org/2000/svg">
<g clip-path="url(#clip0_2824_1035)">
<mask id="mask0_2824_1035" style="mask-type:luminance" maskUnits="userSpaceOnUse" x="0" y="0" width="68" height="40">
<path d="M68 0H0V40H68V0Z" fill="white"/>
</mask>
<g mask="url(#mask0_2824_1035)">
<path d="M62.0496 40H5.95036C2.66504 40 0 37.3977 0 34.1896V5.81037C0 2.60234 2.66504 0 5.95036 0H51.9593C53.5388 0 55.0499 0.61273 56.1678 1.70085L66.2582 11.5574C67.3725 12.6455 68 14.1245 68 15.6669V34.1931C68 37.4012 65.335 40.0035 62.0496 40.0035V40Z" fill="black"/>
<path d="M38.2777 24.9175H27.3398V28.0868H38.2777V24.9175Z" fill="white"/>
<path d="M50.1428 9.38477V13.128H44.874C43.72 13.128 42.7788 13.4767 42.072 14.1633C41.3687 14.85 41.0117 15.7726 41.0117 16.896V24.3015C41.0117 25.4284 41.3687 26.3475 42.072 27.0342C42.7752 27.7209 43.7164 28.0695 44.874 28.0695L45.2888 28.0765V28.0836H46.3562C46.4824 28.0836 46.6159 28.0765 46.7529 28.0589C48.1053 27.904 49.2953 27.1046 50.0094 25.9742C50.0599 25.8968 50.1464 25.7559 50.1464 25.7559V28.0871H53.4173V9.38477H50.1464H50.1428ZM50.1428 24.9002H44.2826V16.1353H50.1428V24.9002Z" fill="white"/>
<path d="M22.0663 13.163C20.714 13.3179 19.5239 14.1173 18.8099 15.2477C18.7594 15.3251 18.7125 15.3991 18.6728 15.466V13.1348H11.875V15.9872H15.42V24.914H11.875V28.0833H22.7371V24.914H18.6728C18.6728 24.914 18.68 16.7337 18.6764 16.121H25.6185V13.1348H22.463C22.3368 13.1348 22.2034 13.1419 22.0663 13.1595V13.163Z" fill="white"/>
</g>
</g>
<defs>
<clipPath id="clip0_2824_1035">
<rect width="68" height="40" fill="white"/>
</clipPath>
</defs>
</svg>
